<?xml version="1.0" standalone="no"?><svg xmlns="http://www.w3.org/2000/svg" viewBox="0 0 1440 320"><path fill="#FFFFFF" fill-opacity="1" d="M0,256L17.1,250.7C34.3,245,69,235,103,192C137.1,149,171,75,206,64C240,53,274,107,309,144C342.9,181,377,203,411,192C445.7,181,480,139,514,128C548.6,117,583,139,617,160C651.4,181,686,203,720,192C754.3,181,789,139,823,133.3C857.1,128,891,160,926,181.3C960,203,994,213,1029,213.3C1062.9,213,1097,203,1131,197.3C1165.7,192,1200,192,1234,197.3C1268.6,203,1303,213,1337,192C1371.4,171,1406,117,1423,90.7L1440,64L1440,320L1422.9,320C1405.7,320,1371,320,1337,320C1302.9,320,1269,320,1234,320C1200,320,1166,320,1131,320C1097.1,320,1063,320,1029,320C994.3,320,960,320,926,320C891.4,320,857,320,823,320C788.6,320,754,320,720,320C685.7,320,651,320,617,320C582.9,320,549,320,514,320C480,320,446,320,411,320C377.1,320,343,320,309,320C274.3,320,240,320,206,320C171.4,320,137,320,103,320C68.6,320,34,320,17,320L0,320Z"></path></svg>