<?xml version="1.0" encoding="utf-8"?>
<!-- Generator: Adobe Illustrator 21.0.0, SVG Export Plug-In . SVG Version: 6.00 Build 0)  -->
<svg version="1.1" id="Layer_1" xmlns="http://www.w3.org/2000/svg" xmlns:xlink="http://www.w3.org/1999/xlink" x="0px" y="0px"
	 viewBox="0 0 2267.7 2267.7" style="enable-background:new 0 0 2267.7 2267.7;" xml:space="preserve">
<style type="text/css">
	.st0{fill:#BFC9D0;stroke:#1D1D1B;stroke-linecap:round;stroke-miterlimit:10;}
	.st1{fill:#D0D0D0;stroke:#1D1D1B;stroke-linecap:round;stroke-miterlimit:10;}
	.st2{fill:#BFC9D0;}
	.st3{fill:#93A1D2;}
	.st4{clip-path:url(#SVGID_2_);fill:#637798;}
	.st5{clip-path:url(#SVGID_4_);fill:#F6E3CC;}
	.st6{clip-path:url(#SVGID_6_);fill:#91D1CC;}
	.st7{clip-path:url(#SVGID_8_);fill:#0D8077;}
	.st8{clip-path:url(#SVGID_10_);fill:#D0D0D0;stroke:#1D1D1B;stroke-linecap:round;stroke-miterlimit:10;}
	.st9{clip-path:url(#SVGID_12_);fill:#D0D0D0;stroke:#1D1D1B;stroke-linecap:round;stroke-miterlimit:10;}
	.st10{clip-path:url(#SVGID_14_);fill:#BFC9D0;stroke:#1D1D1B;stroke-linecap:round;stroke-miterlimit:10;}
	.st11{clip-path:url(#SVGID_16_);fill:none;stroke:#1D1D1B;stroke-width:10;stroke-miterlimit:10;}
	.st12{clip-path:url(#SVGID_18_);fill:none;stroke:#1D1D1B;stroke-width:10;stroke-miterlimit:10;}
	.st13{clip-path:url(#SVGID_20_);fill:none;}
	.st14{clip-path:url(#SVGID_22_);fill:none;stroke:#1D1D1B;stroke-width:6;stroke-miterlimit:10;}
	.st15{clip-path:url(#SVGID_24_);fill:none;stroke:#1D1D1B;stroke-width:6;stroke-miterlimit:10;}
	.st16{clip-path:url(#SVGID_26_);}
	.st17{fill:#1D1D1B;}
	.st18{clip-path:url(#SVGID_28_);}
	.st19{clip-path:url(#SVGID_30_);fill:none;stroke:#1D1D1B;stroke-width:5;stroke-miterlimit:10;}
	.st20{clip-path:url(#SVGID_32_);fill:none;stroke:#1D1D1B;stroke-width:5;stroke-miterlimit:10;}
	.st21{clip-path:url(#SVGID_34_);fill:none;}
	.st22{clip-path:url(#SVGID_36_);fill:none;}
	.st23{fill:#EDED72;}
	.st24{fill:#F6E3CC;}
</style>
<path class="st0" d="M-796.5,1364.2"/>
<path class="st1" d="M-733.3,835.3"/>
<path class="st2" d="M-525.4,814.2"/>
<path class="st2" d="M-433.3,1040.5"/>
<path class="st2" d="M-509.6,1051.1"/>
<path class="st3" d="M-391.2,927.4"/>
<g>
	<g>
		<defs>
			<circle id="SVGID_1_" cx="1133.9" cy="1133.9" r="1133.9"/>
		</defs>
		<clipPath id="SVGID_2_">
			<use xlink:href="#SVGID_1_"  style="overflow:visible;"/>
		</clipPath>
		<path class="st4" d="M3.3,1137.2C3.3,511,511,3.3,1137.2,3.3S2271,511,2271,1137.2s-507.6,1133.9-1133.9,1133.9
			S3.3,1763.4,3.3,1137.2z"/>
	</g>
	<g>
		<defs>
			<circle id="SVGID_3_" cx="1133.9" cy="1133.9" r="1133.9"/>
		</defs>
		<clipPath id="SVGID_4_">
			<use xlink:href="#SVGID_3_"  style="overflow:visible;"/>
		</clipPath>
		<path class="st5" d="M509.7,501.4c-23.8,19.3-36.9,39.8-43.7,52.6c-4.7,8.8-12.8,24.6-16,47c-3.4,23.5,0.5,41.6,4,57
			c3.6,16.1,11.1,40.5,28,67.4c-6.1,0.3-13.7,0.1-22.2-1.8c-46.1-9.9-101.1-63.1-90.8-129.6c8.9-57.8,62.2-93.3,106.7-96.3
			C489.6,496.7,501.3,499,509.7,501.4z"/>
	</g>
	<g>
		<defs>
			<circle id="SVGID_5_" cx="1133.9" cy="1133.9" r="1133.9"/>
		</defs>
		<clipPath id="SVGID_6_">
			<use xlink:href="#SVGID_5_"  style="overflow:visible;"/>
		</clipPath>
		<path class="st6" d="M76.4,1928c-49-208.8-97.9-417.6-146.9-626.5c71.4-62.8,239.3-191.5,465.8-192.1
			c118.8-0.3,202.7,35.8,365.8,107.9c340.1,150.4,510.1,225.7,555.3,376.3c60.4,201.5-99.9,457.1-292.5,568.4
			C756.5,2316.6,358.7,2232.8,76.4,1928z"/>
	</g>
	<g>
		<defs>
			<circle id="SVGID_7_" cx="1133.9" cy="1133.9" r="1133.9"/>
		</defs>
		<clipPath id="SVGID_8_">
			<use xlink:href="#SVGID_7_"  style="overflow:visible;"/>
		</clipPath>
		<path class="st7" d="M2224.7,2044.5c-371.9,611-2363.5,158.3-2373.4-163.9c-8.6-279.1,1464.5-627.8,1804-818.6
			c13.1-7.4,67.3-38.5,145.3-55.2c41.8-8.9,183.4-33.5,297.4,26.3c143,75.1,179.1,249.7,202.6,363.2
			C2349.1,1630.6,2312.9,1899.6,2224.7,2044.5z"/>
	</g>
	<g>
		<defs>
			<circle id="SVGID_9_" cx="1133.9" cy="1133.9" r="1133.9"/>
		</defs>
		<clipPath id="SVGID_10_">
			<use xlink:href="#SVGID_9_"  style="overflow:visible;"/>
		</clipPath>
		<path class="st8" d="M2429.5,851.6"/>
	</g>
	<g>
		<defs>
			<circle id="SVGID_11_" cx="1133.9" cy="1133.9" r="1133.9"/>
		</defs>
		<clipPath id="SVGID_12_">
			<use xlink:href="#SVGID_11_"  style="overflow:visible;"/>
		</clipPath>
		<path class="st9" d="M2337.4,943.7"/>
	</g>
	<g>
		<defs>
			<circle id="SVGID_13_" cx="1133.9" cy="1133.9" r="1133.9"/>
		</defs>
		<clipPath id="SVGID_14_">
			<use xlink:href="#SVGID_13_"  style="overflow:visible;"/>
		</clipPath>
		<path class="st10" d="M2595.3,920"/>
	</g>
	<g>
		<defs>
			<circle id="SVGID_15_" cx="1133.9" cy="1133.9" r="1133.9"/>
		</defs>
		<clipPath id="SVGID_16_">
			<use xlink:href="#SVGID_15_"  style="overflow:visible;"/>
		</clipPath>
		<circle class="st11" cx="1031.9" cy="1252.2" r="42.4"/>
	</g>
	<g>
		<defs>
			<circle id="SVGID_17_" cx="1133.9" cy="1133.9" r="1133.9"/>
		</defs>
		<clipPath id="SVGID_18_">
			<use xlink:href="#SVGID_17_"  style="overflow:visible;"/>
		</clipPath>
		<circle class="st12" cx="1169" cy="1202.5" r="42.4"/>
	</g>
	<g>
		<defs>
			<circle id="SVGID_19_" cx="1133.9" cy="1133.9" r="1133.9"/>
		</defs>
		<clipPath id="SVGID_20_">
			<use xlink:href="#SVGID_19_"  style="overflow:visible;"/>
		</clipPath>
		<path class="st13" d="M1031.9,1252.2"/>
	</g>
	<g>
		<defs>
			<circle id="SVGID_21_" cx="1133.9" cy="1133.9" r="1133.9"/>
		</defs>
		<clipPath id="SVGID_22_">
			<use xlink:href="#SVGID_21_"  style="overflow:visible;"/>
		</clipPath>
		<path class="st14" d="M1169,1202.5l-45.7-49.7l-13.4,71.6l-78,27.7l29.8-79.1c0,0,58.4-22.2,58.7-18.8"/>
	</g>
	<g>
		<defs>
			<circle id="SVGID_23_" cx="1133.9" cy="1133.9" r="1133.9"/>
		</defs>
		<clipPath id="SVGID_24_">
			<use xlink:href="#SVGID_23_"  style="overflow:visible;"/>
		</clipPath>
		<line class="st15" x1="1109.9" y1="1224.5" x2="1052.3" y2="1162.5"/>
	</g>
	<g>
		<defs>
			<circle id="SVGID_25_" cx="1133.9" cy="1133.9" r="1133.9"/>
		</defs>
		<clipPath id="SVGID_26_">
			<use xlink:href="#SVGID_25_"  style="overflow:visible;"/>
		</clipPath>
		<g class="st16">
			<g>
				<path class="st17" d="M1048.3,1167.1c5.1-4.3,14.4-1.2,18-8c2.6-5-1.6-6.8-5.8-5.8c-4.6,1.1-9.1,2.4-13.6,3.5
					c-2.4,0.6-5.7,1-6.7,3.7c-2.2,5.9,5.3,7.5,9.2,6c1.8-0.7,1-3.6-0.8-2.9c-2.1,1.3-3.2,0.2-3.5-3.3c1.1-0.3,2.3-0.6,3.4-0.9
					c1.7-0.4,3.4-0.9,5.1-1.3s3.4-0.9,5.1-1.3c1.1-0.3,2.3-0.6,3.4-0.9c1.4,1.5,1.4,2.6,0,3.3c-1.8,2.3-6.7,2.1-9.3,2.6
					c-2.6,0.5-4.7,1.3-6.7,3.1C1044.7,1166.2,1046.8,1168.3,1048.3,1167.1L1048.3,1167.1z"/>
			</g>
		</g>
	</g>
	<g>
		<defs>
			<circle id="SVGID_27_" cx="1133.9" cy="1133.9" r="1133.9"/>
		</defs>
		<clipPath id="SVGID_28_">
			<use xlink:href="#SVGID_27_"  style="overflow:visible;"/>
		</clipPath>
		<g class="st18">
			<g>
				<path class="st17" d="M1049,1159.6c-1,0-1.9,0-2.9,0c-1.9,0-1.9,3,0,3c1.8,0,3.6,0.1,5.3,0.1c-0.1-1-0.3-2-0.4-2.9
					c-2.4,0.9-5.2,0-7.1,2.1c-1.3,1.5-1.3,3.1-0.1,4.6c0.5,0.7,1.6,0.5,2.1,0c2.6-2.2,5.2-4.2,8-6.1c1.3-0.9,0.6-3.3-1.2-2.7
					c-1.2,0.5-2.5,0.7-3.9,0.4c-1.9-0.3-2.7,2.5-0.8,2.9c5.3,1.1,10.4,0.4,15.1-2.2c1-0.5,1-2.1,0-2.6c-4.4-2.4-9.6-1.1-12.4,3
					c-0.7,1,0.2,2.2,1.3,2.3c4.1,0.2,8.4,0,11.3-3.3c0.6-0.7,0.6-1.8-0.3-2.4c-3.8-2.3-7.7,0.7-6.8,5c0.5-0.6,1-1.3,1.4-1.9
					c-0.6-0.3-1.1-0.6-1.7-0.9c-1.4-1.3-3.5,0.8-2.1,2.1c1.2,1.2,2.2,1.5,3.8,1.7c1,0.1,1.6-1,1.4-1.9c0.8-0.5,1.6-1.1,2.4-1.6
					c-0.1-0.8-0.2-1.6-0.3-2.4c-2.3,2.7-5.9,2.6-9.1,2.5c0.4,0.8,0.9,1.5,1.3,2.3c1.9-2.8,5.4-3.6,8.3-2c0-0.9,0-1.7,0-2.6
					c-4,2.2-8.3,2.9-12.8,1.9c-0.3,1-0.5,1.9-0.8,2.9c2,0.3,3.5,0.2,5.5-0.4c-0.4-0.9-0.8-1.8-1.2-2.7c-3,2-5.8,4.2-8.6,6.5
					c0.7,0,1.4,0,2.1,0c-0.9-1.1,3.5-1.2,3.6-1.2c0.8-0.1,1.5-0.3,2.3-0.6c1.5-0.6,1.4-2.9-0.4-2.9s-3.6-0.1-5.3-0.1c0,1,0,2,0,3
					c1,0,1.9,0,2.9,0C1050.9,1162.6,1050.9,1159.6,1049,1159.6L1049,1159.6z"/>
			</g>
		</g>
	</g>
	<g>
		<defs>
			<circle id="SVGID_29_" cx="1133.9" cy="1133.9" r="1133.9"/>
		</defs>
		<clipPath id="SVGID_30_">
			<use xlink:href="#SVGID_29_"  style="overflow:visible;"/>
		</clipPath>
		<path class="st19" d="M1135.5,1154.4c16.8-20.3-3.9-16-18.5-11.3"/>
	</g>
	<g>
		<defs>
			<circle id="SVGID_31_" cx="1133.9" cy="1133.9" r="1133.9"/>
		</defs>
		<clipPath id="SVGID_32_">
			<use xlink:href="#SVGID_31_"  style="overflow:visible;"/>
		</clipPath>
		<line class="st20" x1="1123" y1="1154.4" x2="1115.9" y2="1141"/>
	</g>
	<g>
		<defs>
			<circle id="SVGID_33_" cx="1133.9" cy="1133.9" r="1133.9"/>
		</defs>
		<clipPath id="SVGID_34_">
			<use xlink:href="#SVGID_33_"  style="overflow:visible;"/>
		</clipPath>
		<circle class="st21" cx="1123" cy="1154.4" r="1146"/>
	</g>
	<g>
		<defs>
			<circle id="SVGID_35_" cx="1133.9" cy="1133.9" r="1133.9"/>
		</defs>
		<clipPath id="SVGID_36_">
			<use xlink:href="#SVGID_35_"  style="overflow:visible;"/>
		</clipPath>
		<circle class="st22" cx="1137.2" cy="1137.2" r="1133.9"/>
	</g>
</g>
<path class="st23" d="M388,600"/>
<path class="st23" d="M544,691"/>
<path class="st23" d="M587,689"/>
<path class="st23" d="M588,638"/>
<path class="st23" d="M558,605"/>
<path class="st24" d="M3278,1034"/>
</svg>
