<?xml version="1.0" encoding="utf-8"?>
<!-- Generator: Adobe Illustrator 24.2.1, SVG Export Plug-In . SVG Version: 6.00 Build 0)  -->
<svg version="1.1" id="Livello_1" xmlns="http://www.w3.org/2000/svg" xmlns:xlink="http://www.w3.org/1999/xlink" x="0px" y="0px"
	 viewBox="0 0 566.9 566.9" style="enable-background:new 0 0 566.9 566.9;" xml:space="preserve">
<style type="text/css">
	.st0{fill:#FF286E;}
</style>
<g>
	<path d="M404,456.3v5.4h19v-5.9h-9.4c2.6-1.6,4.7-3.4,6.4-5.7c1.7-2.3,2.6-4.6,2.6-7c0-2.3-0.7-4.1-2.1-5.6
		c-1.4-1.4-3.7-2.3-6.6-2.3c-2.7,0-5,0.9-6.9,2.4c-1.9,1.6-2.9,4.1-3,7.4h7.1c0-1.3,0.1-2.3,0.6-2.9c0.3-0.6,0.9-0.9,1.6-0.9
		c1.3,0,2,0.9,2,2.4c0,1.7-1,3.6-3,5.7C410.2,451.4,407.5,453.7,404,456.3L404,456.3L404,456.3z M425.3,448.6c0-4.1,0.9-7.3,2.6-9.7
		c1.7-2.4,4.4-3.6,8.1-3.6c3.7,0,6.4,1.1,8.1,3.6s2.6,5.6,2.6,9.7s-0.9,7.3-2.6,9.7c-1.7,2.4-4.4,3.6-8.1,3.6
		c-3.7,0-6.4-1.1-8.1-3.6C426.2,456,425.3,452.7,425.3,448.6L425.3,448.6L425.3,448.6z M439.6,448.6c0-2-0.3-3.6-0.7-4.7
		c-0.4-1.1-1.4-1.7-2.9-1.7c-1.4,0-2.4,0.6-2.9,1.7c-0.4,1.1-0.7,2.7-0.7,4.7s0.3,3.6,0.7,4.7c0.4,1.1,1.4,1.7,2.9,1.7
		c1.4,0,2.4-0.6,2.9-1.7C439.3,452.3,439.6,450.7,439.6,448.6L439.6,448.6L439.6,448.6z M449.3,456.3v5.4h19v-5.9h-9.4
		c2.6-1.6,4.7-3.4,6.4-5.7s2.6-4.6,2.6-7c0-2.3-0.7-4.1-2.1-5.6c-1.4-1.4-3.7-2.3-6.6-2.3c-2.7,0-5,0.9-6.9,2.4
		c-1.9,1.6-2.9,4.1-3,7.4h7.1c0-1.3,0.1-2.3,0.6-2.9c0.3-0.6,0.9-0.9,1.6-0.9c1.3,0,2,0.9,2,2.4c0,1.7-1,3.6-3,5.7
		C455.4,451.4,452.6,453.7,449.3,456.3L449.3,456.3L449.3,456.3z M473.5,442.7v19.4h7.6v-26.3h-11.6v6.9H473.5L473.5,442.7z"/>
	<path class="st0" d="M110,462h7.7l-9.6-26.2h-8.4L90.1,462h7.7l1.4-4.4h9.3L110,462L110,462z M101.1,452.1l2.9-8.6l2.9,8.6H101.1
		L101.1,452.1z M141.6,435.9l-6.3,17l-6.4-17h-9V462h7.3v-14.9L132,462h6.3l4.9-14.9V462h7.3v-26.2L141.6,435.9L141.6,435.9z
		 M167.2,435.4c-2.4,0-4.7,0.6-6.7,1.7c-2,1.1-3.7,2.7-4.9,4.9c-1.1,2-1.7,4.4-1.7,7s0.6,4.9,1.7,7c1.1,2,2.9,3.7,4.9,4.9
		c2,1.1,4.3,1.7,6.7,1.7s4.7-0.6,6.7-1.7c2-1.1,3.7-2.7,4.9-4.9c1.1-2,1.7-4.4,1.7-7s-0.6-4.9-1.7-7c-1.1-2-2.7-3.7-4.9-4.9
		C171.9,436,169.6,435.4,167.2,435.4L167.2,435.4L167.2,435.4z M167.2,442.1c1.9,0,3.3,0.6,4.3,1.9c1,1.1,1.6,2.9,1.6,4.9
		s-0.6,3.7-1.6,4.9s-2.6,1.9-4.3,1.9c-1.9,0-3.3-0.6-4.4-1.9c-1-1.1-1.6-2.9-1.6-4.9c0-2.1,0.6-3.7,1.6-4.9
		C163.8,442.7,165.3,442.1,167.2,442.1L167.2,442.1L167.2,442.1z M205.2,462l-6-10.1c1.9-0.6,3.4-1.4,4.4-2.9c1-1.3,1.6-3,1.6-4.7
		c0-1.6-0.4-3-1.1-4.3c-0.7-1.3-1.9-2.3-3.3-3c-1.4-0.7-3.3-1.1-5.4-1.1h-11.6v26.3h7.3v-9.7h0.7l5.3,9.7h8.1V462z M191.1,442h3.6
		c1,0,1.7,0.3,2.3,0.7s0.7,1.1,0.7,2c0,1.9-1,2.7-3,2.7h-3.6V442L191.1,442z M224.9,441.6v-5.9h-17V462h16.9v-5.9h-9.6v-4.7h8.4
		v-5.6h-8.4v-4.3H224.9L224.9,441.6z M235.1,435.9v26.3h7.3v-26.3H235.1L235.1,435.9z M270.7,435.9h-7.3v14.9l-9.6-14.9h-7.3v26.3
		h7.3v-14.7l9.6,14.7h7.3V435.9L270.7,435.9z M274.7,435.9v26.3h7.3v-10.3h7.9v-5.4H282v-4.7h10.6v-5.9L274.7,435.9L274.7,435.9z
		 M295.5,435.9v26.3h7.3v-26.3H295.5L295.5,435.9z M331.3,435.9H324v14.9l-9.6-14.9h-7.3v26.3h7.3v-14.7l9.6,14.7h7.3V435.9
		L331.3,435.9z M335.3,435.9v26.3h7.3v-26.3H335.3L335.3,435.9z M345,435.9v5.9h7v20.4h7.3v-20.4h7.1v-5.9L345,435.9L345,435.9z
		 M381.5,435.4c-2.4,0-4.7,0.6-6.7,1.7s-3.7,2.7-4.9,4.9c-1.1,2-1.7,4.4-1.7,7s0.6,4.9,1.7,7c1.1,2,2.9,3.7,4.9,4.9s4.3,1.7,6.7,1.7
		c2.4,0,4.7-0.6,6.7-1.7c2-1.1,3.7-2.7,4.9-4.9c1.1-2,1.7-4.4,1.7-7s-0.6-4.9-1.7-7c-1.1-2-2.7-3.7-4.9-4.9
		C386.2,436,383.9,435.4,381.5,435.4L381.5,435.4L381.5,435.4z M381.5,442.1c1.9,0,3.3,0.6,4.3,1.9c1,1.1,1.6,2.9,1.6,4.9
		s-0.6,3.7-1.6,4.9s-2.6,1.9-4.3,1.9c-1.9,0-3.3-0.6-4.4-1.9c-1-1.1-1.6-2.9-1.6-4.9c0-2.1,0.6-3.7,1.6-4.9
		C378.2,442.7,379.6,442.1,381.5,442.1L381.5,442.1L381.5,442.1z"/>
	<path d="M389,189.1c-15-18-39.9-24.2-60.9-16.2c5.3,3.9,9.3,9,11.6,14.9c5.9-1.3,12.1-1,18.7,1.3c12.9,4.3,21.2,13.3,23.9,26.7
		c3,14.9-4.3,29.3-17.9,36.7c-14.4,7.9-30.9,5.4-43-6.4c-21.4-20.9-42.6-42-64.5-62.5c-20.7-19.4-53.6-18.6-73.9,1
		c-19.6,18.9-21.4,49.6-4.1,70.3c18,21.7,50.7,26.3,73.3,9.4c9.1-6.7,17.3-15.9,24.7-22.9L263.2,228c-6,6.9-11.1,12.7-17.6,18.9
		c-10.3,9.7-22.6,12.9-36.2,8.3c-12.7-4.3-21.3-13.2-23.9-26.7c-3-15.3,4.4-29.6,18.6-37c14.2-7.4,30.4-4.9,42.5,6.7
		c21.4,20.9,42.6,42.2,64.5,62.5C332,280,364.6,279,385,259.5C404.5,240.6,406.3,209.9,389,189.1L389,189.1z"/>
	<path class="st0" d="M369.4,135.7c2.6-1.3,4.6-3.1,5.4-5.6c2.9-7.6-4.3-19.6-17.4-22.4c-10.6-2.3-19.9-1.4-26,1.4
		C347.3,114.1,360.3,123.7,369.4,135.7L369.4,135.7z"/>
	<path d="M261.7,143.1l-9,16.7c0,0,10,17.6,35.9,26.7c25.9,9.3,14-13.3,14-13.3s-19-7.4-26.4-31.7
		C268.7,117.4,261.7,143.1,261.7,143.1L261.7,143.1z"/>
	<path class="st0" d="M265,120.2c-10,5.3-16.6,15-16.4,26c0,4.7,1.4,9.1,3.6,13.2l0.4,0.7c16.2-10.3,35.9-16.4,57.3-16.7
		c24.2-0.3,46.5,7,64,19.3c-7.6-29.7-37.6-51.7-73.2-51.3c-11.6,0.1-22.4,2.7-32.2,7L265,120.2L265,120.2z"/>
	<path class="st0" d="M309.7,173.8c11.4,2.3,20.6,9.6,23.2,20c1.1,4.4,0.9,9-0.4,13.3l-0.4,0.7c-19-5.3-40.7-5.9-62.6-0.4
		c-24.9,6.1-45.9,18.7-60.9,34.9c0.6-29.9,26-58.3,62.5-67.3c11.9-2.9,23.6-3.4,34.6-2L309.7,173.8L309.7,173.8z"/>
	<path d="M465.9,397.4v-22.9l-2.1,1.7c-4,3.3-7.4,11.4-7.4,14.6c0,3.9,1,6.4,7,6.4h2.6V397.4z M443.3,340.9v-0.3
		c2.6-4.4,11.3-18.6,21.4-18.6c7.6,0,15.3,7.7,15.3,19.2v69.3c0,1-0.7,1.7-1.7,1.7h-19.3c-13-0.3-16.9-7.9-16.9-19
		c0-18.3,23.9-37.5,24-37.7v-8.3c0-3.3-0.6-7.4-3.9-7.4c-2.6,0-5.6,3.3-9.1,8.4c-0.3,0.6-0.7,0.9-1.4,0.9c-0.7,0-7-4.9-7.9-6.1
		c-0.6-0.6-0.7-0.9-0.7-1.4C443.1,341.2,443.1,341.1,443.3,340.9 M426.6,412.3c-1,0-1.7-0.7-1.7-1.7v-84.5c0-1,0.7-1.7,1.7-1.7h10.3
		c1,0,2,0.7,2,1.7v84.5c0,1-0.9,1.7-2,1.7H426.6L426.6,412.3z M424.8,311.6c0-0.7,0.3-1,0.7-1.4l10.4-5.9c0.7-0.3,0.9-0.3,1-0.3
		c1,0,1.7,0.7,2,1.6v12.4c0,1-0.9,1.7-2,1.7h-10.3c-1,0-1.7-0.7-1.7-1.7v-6.4H424.8z M418.5,410.4c0,1-0.9,1.7-2,1.7h-10.3
		c-1,0-2-0.7-2-1.7V308.1c0.1-0.6,0.6-1,0.9-1.3l10.3-5.9c0.1-0.1,0.3-0.3,0.6-0.3c0.1,0,0.3-0.1,0.6-0.1c1,0,1.7,0.7,2,1.6V410.4
		L418.5,410.4z M384,397.4v-22.9l-2.1,1.7c-4,3.3-7.4,11.4-7.4,14.6c0,3.9,1,6.4,7,6.4h2.6V397.4z M361.4,340.9v-0.3
		c2.6-4.4,11.3-18.6,21.4-18.6c7.6,0,15.3,7.7,15.3,19.2v69.3c0,1-0.7,1.7-1.7,1.7h-19.3c-13-0.3-16.9-7.9-16.9-19
		c0-18.3,23.9-37.5,24-37.7v-8.3c0-3.3-0.6-7.4-3.9-7.4c-2.6,0-5.6,3.3-9.1,8.4c-0.3,0.6-0.7,0.9-1.4,0.9c-0.7,0-7-4.9-7.9-6.1
		c-0.6-0.6-0.7-0.9-0.7-1.4C361.3,341.2,361.3,341.1,361.4,340.9 M357.9,400.1v11c0,0.9-0.6,1.6-1.3,1.7c-1.3,0.3-2.4,0.3-3.1,0.3
		c-10.3,0-18.6-8.1-18.6-17.9v-83.8c0-0.6,0.3-1,0.7-1.4c0.3-0.1,10.3-5.9,10.3-5.9c0.7-0.3,0.9-0.3,1.3-0.3c0.9,0,1.6,0.7,1.7,1.6
		v17.7h7c1,0,1.7,0.7,1.7,1.7v11.3c0,1-0.7,1.9-1.7,1.9h-7v56.3c0,2.1,2.1,3.9,4.6,3.9c0.9,0,1.6-0.1,2.6-0.3
		C357.2,398.4,357.9,399,357.9,400.1 M327.8,410.1c0,1.3-0.9,2.1-2.1,2.1h-10.9c-1.3,0-2.1-0.9-2.1-2.1V304.2c0-1,0.9-2.1,2.1-2.1
		h10.9c1.3,0,2.1,1,2.1,2.1V410.1L327.8,410.1z M299.4,302.1h9.1c1.3,0,2,1.3,1.4,2.4l-8.7,20.7c-0.6,1.3-2,2.1-3.1,2.1H291
		c-1.3,0-2-1.3-1.4-2.4l6.9-20.7C296.8,303.2,298.1,302.1,299.4,302.1 M273,341.2c0-2-2.1-3.6-4.6-3.6c-2.6,0-4.7,1.6-4.7,3.6v53.2
		c0,2,2.1,3.6,4.7,3.6h4.6V341.2L273,341.2z M287.1,410.4c0,1-0.7,1.7-1.7,1.7h-17c-10.6,0-18.7-7.6-18.7-17.2v-54.3
		c0-9.7,8.3-17.4,18.7-17.4c1.6,0,3.1,0.1,4.7,0.6v-15.6c0-0.6,0.3-1,0.9-1.3l10.7-6.1c0.3-0.1,0.6-0.1,0.7-0.1
		c0.9,0,1.7,0.7,1.7,1.6L287.1,410.4L287.1,410.4z M217.1,340.9c0-2-2.1-3.7-4.7-3.7c-2.4,0-4.6,1.7-4.6,3.7v54.3
		c0,2.1,2.1,3.9,4.6,3.9c2.6,0,4.7-1.7,4.7-3.9V340.9L217.1,340.9z M231.1,395.8c0,9.9-8.3,17.9-18.7,17.9
		c-10.3,0-18.7-8.1-18.7-17.9v-55.5c0-9.9,8.4-17.9,18.7-17.9c10.6,0,18.7,8.1,18.7,17.9V395.8L231.1,395.8z M190.8,325.2v12.4
		c0,0.9-0.7,1.6-1.6,1.6c-10,0.7-15.9,6.4-15.9,13.9v57.3c0,1-0.9,1.7-2,1.7h-10.4c-1,0-2-0.7-2-1.7v-85.2c0.6-0.7,1.3-1,2-1
		c0.1,0,0.6,0,0.9,0.1c0.3,0.1,9.3,5.1,9.3,5.1c5.3-3.9,10.6-6,17.7-6C190.1,323.6,190.5,324.4,190.8,325.2 M140,412.3
		c-1,0-1.7-0.7-1.7-1.7v-84.5c0-1,0.7-1.7,1.7-1.7h10.4c1,0,2,0.7,2,1.7v84.5c0,1-0.9,1.7-2,1.7H140L140,412.3z M138.2,311.6
		c0-0.7,0.3-1,0.7-1.4l10.3-5.9c0.7-0.3,0.9-0.3,1-0.3c1,0,1.7,0.7,2,1.6v12.4c0,1-0.9,1.7-2,1.7h-10.4c-1,0-1.7-0.7-1.7-1.7v-6.4
		H138.2z M103.3,324.4v68.5c0,2.6,2.9,4.9,6.3,4.9c3.7,0,6.4-2.3,6.4-4.9v-32h-4.4c-1,0-1.7-0.9-1.7-1.7v-7.1c0-0.9,0.7-1.7,1.7-1.7
		h17.7c1,0,1.7,0.9,1.7,2v39.3c0,12.1-9.4,21.7-21.6,21.7c-12,0-21.6-9.7-21.6-21.7v-63.5c0-7.9,1.3-14.7,4.6-19.4
		c1.3-2.1,3.6-4,5.6-5.1c7.9-4.4,20.4-1.4,32.2,7c0.7,0.6,0.9,0.9,0.9,1.6c0,0.1,0,0.6-0.1,0.7l-5.6,9c-0.3,0.6-0.9,0.9-1.6,0.9
		c-0.6,0-0.9-0.1-1.3-0.3c-6.1-4.9-12-7.1-15.4-5.3C104.3,318.6,103.3,320.5,103.3,324.4"/>
</g>
</svg>
