<?xml version="1.0" encoding="utf-8"?>
<!-- Generator: Adobe Illustrator 21.0.0, SVG Export Plug-In . SVG Version: 6.00 Build 0)  -->
<svg version="1.1" id="Layer_1" xmlns="http://www.w3.org/2000/svg" xmlns:xlink="http://www.w3.org/1999/xlink" x="0px" y="0px"
	 viewBox="0 0 780 141" style="enable-background:new 0 0 780 141;" xml:space="preserve">
<style type="text/css">
	.st0{stroke:#000000;stroke-miterlimit:10;}
	.st1{fill:#FFFFFF;}
	.st2{font-family:'Tahoma';}
	.st3{font-size:110px;}
</style>
<path class="st0" d="M780.3,0.5v141H0.9c-0.1-10.1-0.3-20.2-0.4-30.3C0.4,97.3,0.3,83.4,0.2,69.6c20-0.6,40.1-1.1,60.1-1.7
	c20.7-0.6,36.5-1.2,57.3-2.2c18.5-0.9,38.9-2,64.4-4c15.4-1.2,35.2-3.1,58.4-5.8c20.3-3.3,40.5-6.6,60.8-9.8
	c20.3-3.6,40.6-7.1,60.9-10.7c19.7-3.4,39.3-6.9,59-10.3c19.6-3.9,39.2-7.9,58.8-11.8c20.1-1.2,40.2-2.4,60.3-3.6
	C620.2,6.5,700.2,3.5,780.3,0.5z"/>
<text transform="matrix(1 0 0 1 356.2179 116.4061)" class="st1 st2 st3">Sport RE</text>
</svg>
